<?xml version="1.0" standalone="no"?>
<!DOCTYPE svg PUBLIC "-//W3C//DTD SVG 20010904//EN"
 "http://www.w3.org/TR/2001/REC-SVG-20010904/DTD/svg10.dtd">
<svg version="1.0" xmlns="http://www.w3.org/2000/svg"
 width="409.000000pt" height="409.000000pt" viewBox="0 0 409.000000 409.000000"
 preserveAspectRatio="xMidYMid meet">
<metadata>
Created by potrace 1.14, written by Peter Selinger 2001-2017
</metadata>
<g transform="translate(0.000000,409.000000) scale(0.100000,-0.100000)"
fill="#000000" stroke="none">
<path d="M790 3301 c-7 -13 -10 -425 -10 -1263 0 -1068 2 -1247 14 -1264 12
-15 19 -17 32 -8 10 5 199 374 422 819 l404 809 184 -185 184 -185 0 -592 0
-592 -193 0 c-181 0 -195 -1 -212 -20 -15 -16 -15 -22 -5 -35 19 -23 861 -23
880 0 10 13 10 19 -5 35 -17 19 -31 20 -207 20 l-188 0 0 598 0 597 181 180
c100 99 183 176 185 170 2 -5 184 -371 404 -813 223 -448 406 -805 415 -809
47 -17 45 -58 45 1276 0 920 -3 1257 -11 1267 -6 8 -17 14 -24 14 -7 0 -193
-183 -413 -406 l-401 -407 -180 362 c-100 198 -181 363 -181 366 0 3 80 5 178
5 167 0 180 1 197 20 17 18 17 22 4 36 -23 22 -855 22 -878 0 -13 -14 -13 -18
4 -36 17 -19 30 -20 197 -20 98 0 178 -2 178 -5 0 -6 -350 -708 -357 -715 -2
-2 -185 177 -406 398 -221 221 -408 402 -414 402 -7 0 -17 -9 -23 -19z m596
-1280 c-117 -234 -283 -568 -368 -741 l-157 -315 0 1110 -1 1110 369 -369 369
-369 -212 -426z m1853 57 l0 -1103 -364 725 c-200 399 -364 732 -364 740 -1
11 715 740 726 740 2 0 3 -496 2 -1102z m-1219 540 l0 -493 -167 168 -168 167
163 325 c89 179 164 325 167 325 3 0 5 -222 5 -492z m240 163 l161 -323 -165
-167 -166 -166 0 494 c0 272 2 492 4 490 2 -2 77 -150 166 -328z"/>
</g>
</svg>
